<svg width="16" height="16" viewBox="0 0 16 16" fill="none" xmlns="http://www.w3.org/2000/svg">
<path d="M6.96408 1.46461L5.17208 5.25661L1.17208 5.86461C0.958748 5.88594 0.780081 5.99261 0.636081 6.18461C0.492081 6.37661 0.422748 6.59528 0.428081 6.84061C0.433414 7.08594 0.521414 7.29394 0.692081 7.46461L3.57208 10.3926L2.90008 14.6006C2.85741 14.8353 2.90008 15.0459 3.02808 15.2326C3.15608 15.4193 3.32941 15.5419 3.54808 15.6006C3.76675 15.6593 3.97208 15.6353 4.16408 15.5286L7.76408 13.6566L11.3641 15.5286C11.5774 15.6353 11.7934 15.6593 12.0121 15.6006C12.2307 15.5419 12.3987 15.4193 12.5161 15.2326C12.6334 15.0459 12.6707 14.8353 12.6281 14.6006L11.9721 10.3926L14.8361 7.46461C15.0067 7.29394 15.0947 7.09128 15.1001 6.85661C15.1054 6.62194 15.0387 6.40861 14.9001 6.21661C14.7614 6.02461 14.5854 5.90728 14.3721 5.86461L10.3721 5.25661L8.56408 1.46461C8.45741 1.25128 8.29741 1.10461 8.08408 1.02461C7.87075 0.94461 7.65741 0.94461 7.44408 1.02461C7.23075 1.10461 7.07075 1.25128 6.96408 1.46461Z" fill="#FFAF2B"/>
</svg>
